<svg t="1650377097514" class="icon" viewBox="0 0 1024 1024" version="1.1" xmlns="http://www.w3.org/2000/svg" p-id="1015" width="48" height="48"><path d="M681.664 540.096c-18.752-18.752-49.152-18.752-67.904 0L560 593.92 560 314.176c0-26.496-21.504-48-48-48s-48 21.504-48 48l0 279.808L410.112 540.096c-18.816-18.816-49.216-18.752-67.904 0-18.752 18.752-18.752 49.152 0 67.904l135.808 135.744c9.344 9.344 21.632 14.08 33.92 14.08s24.576-4.672 33.92-14.08L681.664 608C700.416 589.248 700.416 558.848 681.664 540.096z" fill="#333333" p-id="1016"></path><path d="M512 16C238.464 16 16 238.528 16 512S238.464 1008 512 1008s496-222.528 496-496S785.472 16 512 16zM512 912c-220.544 0-400-179.456-400-400S291.392 112 512 112 912 291.456 912 512 732.544 912 512 912z" fill="#333333" p-id="1017"></path></svg>
